<svg class="marks" width="336" height="376" viewBox="0 0 336 376" version="1.1" xmlns="http://www.w3.org/2000/svg" xmlns:xlink="http://www.w3.org/1999/xlink"><g transform="translate(81,15)"><g class="mark-group role-frame root"><g transform="translate(0,0)"><path class="background" d="M0.5,0.5h250v300h-250Z" style="fill: none; stroke: #ddd;"></path><g><g class="mark-group role-axis"><g transform="translate(0.5,0.5)"><path class="background" d="M0,0h0v0h0Z" style="pointer-events: none; fill: none;"></path><g><g class="mark-rule role-axis-grid" style="pointer-events: none;"><line transform="translate(0,300)" x2="250" y2="0" style="fill: none; stroke: #ddd; stroke-width: 1; opacity: 1;"></line><line transform="translate(0,270)" x2="250" y2="0" style="fill: none; stroke: #ddd; stroke-width: 1; opacity: 1;"></line><line transform="translate(0,240)" x2="250" y2="0" style="fill: none; stroke: #ddd; stroke-width: 1; opacity: 1;"></line><line transform="translate(0,210)" x2="250" y2="0" style="fill: none; stroke: #ddd; stroke-width: 1; opacity: 1;"></line><line transform="translate(0,180)" x2="250" y2="0" style="fill: none; stroke: #ddd; stroke-width: 1; opacity: 1;"></line><line transform="translate(0,150)" x2="250" y2="0" style="fill: none; stroke: #ddd; stroke-width: 1; opacity: 1;"></line><line transform="translate(0,120)" x2="250" y2="0" style="fill: none; stroke: #ddd; stroke-width: 1; opacity: 1;"></line><line transform="translate(0,90)" x2="250" y2="0" style="fill: none; stroke: #ddd; stroke-width: 1; opacity: 1;"></line><line transform="translate(0,60)" x2="250" y2="0" style="fill: none; stroke: #ddd; stroke-width: 1; opacity: 1;"></line><line transform="translate(0,30)" x2="250" y2="0" style="fill: none; stroke: #ddd; stroke-width: 1; opacity: 1;"></line><line transform="translate(0,0)" x2="250" y2="0" style="fill: none; stroke: #ddd; stroke-width: 1; opacity: 1;"></line></g></g></g></g><g class="mark-area role-mark marks"><path d="M236.11111111111111,144L208.33333333333334,39L180.55555555555557,243L152.77777777777777,141L125,56.99999999999997L97.22222222222223,27L69.44444444444444,171L41.666666666666664,135L13.888888888888886,216L13.888888888888886,300L41.666666666666664,300L69.44444444444444,300L97.22222222222223,300L125,300L152.77777777777777,300L180.55555555555557,300L208.33333333333334,300L236.11111111111111,300Z" style="fill: #4c78a8;"></path></g><g class="mark-group role-axis"><g transform="translate(0.5,300.5)"><path class="background" d="M0,0h0v0h0Z" style="pointer-events: none; fill: none;"></path><g><g class="mark-rule role-axis-tick" style="pointer-events: none;"><line transform="translate(14,0)" x2="0" y2="5" style="fill: none; stroke: #888; stroke-width: 1; opacity: 1;"></line><line transform="translate(42,0)" x2="0" y2="5" style="fill: none; stroke: #888; stroke-width: 1; opacity: 1;"></line><line transform="translate(69,0)" x2="0" y2="5" style="fill: none; stroke: #888; stroke-width: 1; opacity: 1;"></line><line transform="translate(97,0)" x2="0" y2="5" style="fill: none; stroke: #888; stroke-width: 1; opacity: 1;"></line><line transform="translate(125,0)" x2="0" y2="5" style="fill: none; stroke: #888; stroke-width: 1; opacity: 1;"></line><line transform="translate(153,0)" x2="0" y2="5" style="fill: none; stroke: #888; stroke-width: 1; opacity: 1;"></line><line transform="translate(181,0)" x2="0" y2="5" style="fill: none; stroke: #888; stroke-width: 1; opacity: 1;"></line><line transform="translate(208,0)" x2="0" y2="5" style="fill: none; stroke: #888; stroke-width: 1; opacity: 1;"></line><line transform="translate(236,0)" x2="0" y2="5" style="fill: none; stroke: #888; stroke-width: 1; opacity: 1;"></line></g><g class="mark-text role-axis-label" style="pointer-events: none;"><text text-anchor="middle" transform="translate(13.888888888888886,21)" style="font-family: Raleway; font-size: 18px; fill: #000; opacity: 1;">A</text><text text-anchor="middle" transform="translate(41.666666666666664,21)" style="font-family: Raleway; font-size: 18px; fill: #000; opacity: 1;">B</text><text text-anchor="middle" transform="translate(69.44444444444444,21)" style="font-family: Raleway; font-size: 18px; fill: #000; opacity: 1;">C</text><text text-anchor="middle" transform="translate(97.22222222222223,21)" style="font-family: Raleway; font-size: 18px; fill: #000; opacity: 1;">D</text><text text-anchor="middle" transform="translate(125,21)" style="font-family: Raleway; font-size: 18px; fill: #000; opacity: 1;">E</text><text text-anchor="middle" transform="translate(152.77777777777777,21)" style="font-family: Raleway; font-size: 18px; fill: #000; opacity: 1;">F</text><text text-anchor="middle" transform="translate(180.55555555555557,21)" style="font-family: Raleway; font-size: 18px; fill: #000; opacity: 1;">G</text><text text-anchor="middle" transform="translate(208.33333333333334,21)" style="font-family: Raleway; font-size: 18px; fill: #000; opacity: 1;">H</text><text text-anchor="middle" transform="translate(236.11111111111111,21)" style="font-family: Raleway; font-size: 18px; fill: #000; opacity: 1;">I</text></g><g class="mark-rule role-axis-domain" style="pointer-events: none;"><line transform="translate(0,0)" x2="250" y2="0" style="fill: none; stroke: #888; stroke-width: 1; opacity: 1;"></line></g><g class="mark-text role-axis-title" style="pointer-events: none;"><text text-anchor="middle" transform="translate(125,49)" style="font-family: Raleway; font-size: 24px; font-weight: bold; fill: #000; opacity: 1;">a</text></g></g></g></g><g class="mark-group role-axis"><g transform="translate(0.5,0.5)"><path class="background" d="M0,0h0v0h0Z" style="pointer-events: none; fill: none;"></path><g><g class="mark-rule role-axis-tick" style="pointer-events: none;"><line transform="translate(0,300)" x2="-5" y2="0" style="fill: none; stroke: #888; stroke-width: 1; opacity: 1;"></line><line transform="translate(0,270)" x2="-5" y2="0" style="fill: none; stroke: #888; stroke-width: 1; opacity: 1;"></line><line transform="translate(0,240)" x2="-5" y2="0" style="fill: none; stroke: #888; stroke-width: 1; opacity: 1;"></line><line transform="translate(0,210)" x2="-5" y2="0" style="fill: none; stroke: #888; stroke-width: 1; opacity: 1;"></line><line transform="translate(0,180)" x2="-5" y2="0" style="fill: none; stroke: #888; stroke-width: 1; opacity: 1;"></line><line transform="translate(0,150)" x2="-5" y2="0" style="fill: none; stroke: #888; stroke-width: 1; opacity: 1;"></line><line transform="translate(0,120)" x2="-5" y2="0" style="fill: none; stroke: #888; stroke-width: 1; opacity: 1;"></line><line transform="translate(0,90)" x2="-5" y2="0" style="fill: none; stroke: #888; stroke-width: 1; opacity: 1;"></line><line transform="translate(0,60)" x2="-5" y2="0" style="fill: none; stroke: #888; stroke-width: 1; opacity: 1;"></line><line transform="translate(0,30)" x2="-5" y2="0" style="fill: none; stroke: #888; stroke-width: 1; opacity: 1;"></line><line transform="translate(0,0)" x2="-5" y2="0" style="fill: none; stroke: #888; stroke-width: 1; opacity: 1;"></line></g><g class="mark-text role-axis-label" style="pointer-events: none;"><text text-anchor="end" transform="translate(-7,305)" style="font-family: Raleway; font-size: 18px; fill: #000; opacity: 1;">0</text><text text-anchor="end" transform="translate(-7,275)" style="font-family: Raleway; font-size: 18px; fill: #000; opacity: 1;">10</text><text text-anchor="end" transform="translate(-7,245)" style="font-family: Raleway; font-size: 18px; fill: #000; opacity: 1;">20</text><text text-anchor="end" transform="translate(-7,215)" style="font-family: Raleway; font-size: 18px; fill: #000; opacity: 1;">30</text><text text-anchor="end" transform="translate(-7,185)" style="font-family: Raleway; font-size: 18px; fill: #000; opacity: 1;">40</text><text text-anchor="end" transform="translate(-7,155)" style="font-family: Raleway; font-size: 18px; fill: #000; opacity: 1;">50</text><text text-anchor="end" transform="translate(-7,125)" style="font-family: Raleway; font-size: 18px; fill: #000; opacity: 1;">60</text><text text-anchor="end" transform="translate(-7,95)" style="font-family: Raleway; font-size: 18px; fill: #000; opacity: 1;">70</text><text text-anchor="end" transform="translate(-7,65)" style="font-family: Raleway; font-size: 18px; fill: #000; opacity: 1;">80</text><text text-anchor="end" transform="translate(-7,35)" style="font-family: Raleway; font-size: 18px; fill: #000; opacity: 1;">90</text><text text-anchor="end" transform="translate(-7,5)" style="font-family: Raleway; font-size: 18px; fill: #000; opacity: 1;">100</text></g><g class="mark-rule role-axis-domain" style="pointer-events: none;"><line transform="translate(0,300)" x2="0" y2="-300" style="fill: none; stroke: #888; stroke-width: 1; opacity: 1;"></line></g><g class="mark-text role-axis-title" style="pointer-events: none;"><text text-anchor="middle" transform="translate(-55,145)" style="font-family: Raleway; font-size: 24px; font-weight: bold; fill: #000; opacity: 1;">b</text></g></g></g></g></g></g></g></g></svg>