<?xml version="1.0" encoding="UTF-8" standalone="no"?>
<!DOCTYPE svg PUBLIC "-//W3C//DTD SVG 1.1//EN"
 "http://www.w3.org/Graphics/SVG/1.1/DTD/svg11.dtd">
<!-- Generated by graphviz version 2.40.1 (0)
 -->
<!-- Title: G Pages: 1 -->
<svg width="134pt" height="188pt"
 viewBox="0.00 0.00 134.00 188.00" xmlns="http://www.w3.org/2000/svg" xmlns:xlink="http://www.w3.org/1999/xlink">
<g id="graph0" class="graph" transform="scale(1 1) rotate(0) translate(4 184)">
<title>G</title>
<!-- a -->
<g id="node1" class="node">
<title>a</title>
<ellipse fill="#ffffff" stroke="#ffffff" cx="54" cy="-162" rx="27" ry="18"/>
<text text-anchor="middle" x="54" y="-158.3" font-family="Raleway" font-size="14.00" fill="#000000">a</text>
</g>
<!-- b -->
<g id="node2" class="node">
<title>b</title>
<ellipse fill="#ffffff" stroke="#ffffff" cx="82" cy="-90" rx="27" ry="18"/>
<text text-anchor="middle" x="82" y="-86.3" font-family="Raleway" font-size="14.00" fill="#000000">b</text>
</g>
<!-- a&#45;&gt;b -->
<g id="edge1" class="edge">
<title>a&#45;&gt;b</title>
<path fill="none" stroke="#000000" d="M60.778,-144.5708C63.9872,-136.3187 67.8935,-126.2738 71.4758,-117.0623"/>
<polygon fill="#000000" stroke="#000000" points="74.8248,-118.1069 75.1874,-107.5182 68.3008,-115.5697 74.8248,-118.1069"/>
</g>
<!-- c -->
<g id="node3" class="node">
<title>c</title>
<ellipse fill="#ffffff" stroke="#ffffff" cx="27" cy="-18" rx="27" ry="18"/>
<text text-anchor="middle" x="27" y="-14.3" font-family="Raleway" font-size="14.00" fill="#000000">c</text>
</g>
<!-- a&#45;&gt;c -->
<g id="edge3" class="edge">
<title>a&#45;&gt;c</title>
<path fill="none" stroke="#000000" d="M50.635,-144.0535C46.027,-119.4774 37.7064,-75.1008 32.2683,-46.0974"/>
<polygon fill="#000000" stroke="#000000" points="35.6904,-45.3564 30.4074,-36.1727 28.8103,-46.6465 35.6904,-45.3564"/>
</g>
<!-- b&#45;&gt;c -->
<g id="edge2" class="edge">
<title>b&#45;&gt;c</title>
<path fill="none" stroke="#000000" d="M69.5196,-73.6621C62.4876,-64.4564 53.5653,-52.7764 45.7117,-42.4953"/>
<polygon fill="#000000" stroke="#000000" points="48.2828,-40.0953 39.431,-34.2733 42.72,-44.3446 48.2828,-40.0953"/>
</g>
<!-- d -->
<g id="node4" class="node">
<title>d</title>
<ellipse fill="#ffffff" stroke="#ffffff" cx="99" cy="-18" rx="27" ry="18"/>
<text text-anchor="middle" x="99" y="-14.3" font-family="Raleway" font-size="14.00" fill="#000000">d</text>
</g>
<!-- b&#45;&gt;d -->
<g id="edge4" class="edge">
<title>b&#45;&gt;d</title>
<path fill="none" stroke="#000000" d="M86.2022,-72.2022C88.0821,-64.2406 90.3425,-54.6671 92.4371,-45.7957"/>
<polygon fill="#000000" stroke="#000000" points="95.8955,-46.3792 94.7872,-35.8425 89.0828,-44.7706 95.8955,-46.3792"/>
</g>
</g>
</svg>
