<svg class="marks" width="686" height="376" viewBox="0 0 686 376" version="1.1" xmlns="http://www.w3.org/2000/svg" xmlns:xlink="http://www.w3.org/1999/xlink"><g transform="translate(81,15)"><g class="mark-group role-frame root"><g transform="translate(0,0)"><path class="background" d="M0.5,0.5h600v300h-600Z" style="fill: none; stroke: #ddd;"></path><g><g class="mark-group role-axis"><g transform="translate(0.5,0.5)"><path class="background" d="M0,0h0v0h0Z" style="pointer-events: none; fill: none;"></path><g><g class="mark-rule role-axis-grid" style="pointer-events: none;"><line transform="translate(0,300)" x2="600" y2="0" style="fill: none; stroke: #ddd; stroke-width: 1; opacity: 1;"></line><line transform="translate(0,270)" x2="600" y2="0" style="fill: none; stroke: #ddd; stroke-width: 1; opacity: 1;"></line><line transform="translate(0,240)" x2="600" y2="0" style="fill: none; stroke: #ddd; stroke-width: 1; opacity: 1;"></line><line transform="translate(0,210)" x2="600" y2="0" style="fill: none; stroke: #ddd; stroke-width: 1; opacity: 1;"></line><line transform="translate(0,180)" x2="600" y2="0" style="fill: none; stroke: #ddd; stroke-width: 1; opacity: 1;"></line><line transform="translate(0,150)" x2="600" y2="0" style="fill: none; stroke: #ddd; stroke-width: 1; opacity: 1;"></line><line transform="translate(0,120)" x2="600" y2="0" style="fill: none; stroke: #ddd; stroke-width: 1; opacity: 1;"></line><line transform="translate(0,90)" x2="600" y2="0" style="fill: none; stroke: #ddd; stroke-width: 1; opacity: 1;"></line><line transform="translate(0,60)" x2="600" y2="0" style="fill: none; stroke: #ddd; stroke-width: 1; opacity: 1;"></line><line transform="translate(0,30)" x2="600" y2="0" style="fill: none; stroke: #ddd; stroke-width: 1; opacity: 1;"></line><line transform="translate(0,0)" x2="600" y2="0" style="fill: none; stroke: #ddd; stroke-width: 1; opacity: 1;"></line></g></g></g></g><g class="mark-area role-mark marks"><path d="M566.6666666666667,144L500,39L433.3333333333333,243L366.6666666666667,141L300,56.99999999999997L233.33333333333331,27L166.66666666666666,171L99.99999999999999,135L33.333333333333314,216L33.333333333333314,300L99.99999999999999,300L166.66666666666666,300L233.33333333333331,300L300,300L366.6666666666667,300L433.3333333333333,300L500,300L566.6666666666667,300Z" style="fill: #4c78a8;"></path></g><g class="mark-group role-axis"><g transform="translate(0.5,300.5)"><path class="background" d="M0,0h0v0h0Z" style="pointer-events: none; fill: none;"></path><g><g class="mark-rule role-axis-tick" style="pointer-events: none;"><line transform="translate(33,0)" x2="0" y2="5" style="fill: none; stroke: #888; stroke-width: 1; opacity: 1;"></line><line transform="translate(100,0)" x2="0" y2="5" style="fill: none; stroke: #888; stroke-width: 1; opacity: 1;"></line><line transform="translate(167,0)" x2="0" y2="5" style="fill: none; stroke: #888; stroke-width: 1; opacity: 1;"></line><line transform="translate(233,0)" x2="0" y2="5" style="fill: none; stroke: #888; stroke-width: 1; opacity: 1;"></line><line transform="translate(300,0)" x2="0" y2="5" style="fill: none; stroke: #888; stroke-width: 1; opacity: 1;"></line><line transform="translate(367,0)" x2="0" y2="5" style="fill: none; stroke: #888; stroke-width: 1; opacity: 1;"></line><line transform="translate(433,0)" x2="0" y2="5" style="fill: none; stroke: #888; stroke-width: 1; opacity: 1;"></line><line transform="translate(500,0)" x2="0" y2="5" style="fill: none; stroke: #888; stroke-width: 1; opacity: 1;"></line><line transform="translate(567,0)" x2="0" y2="5" style="fill: none; stroke: #888; stroke-width: 1; opacity: 1;"></line></g><g class="mark-text role-axis-label" style="pointer-events: none;"><text text-anchor="middle" transform="translate(33.333333333333314,21)" style="font: 18px EB Garamond; fill: #000; opacity: 1;">A</text><text text-anchor="middle" transform="translate(99.99999999999999,21)" style="font: 18px EB Garamond; fill: #000; opacity: 1;">B</text><text text-anchor="middle" transform="translate(166.66666666666666,21)" style="font: 18px EB Garamond; fill: #000; opacity: 1;">C</text><text text-anchor="middle" transform="translate(233.33333333333331,21)" style="font: 18px EB Garamond; fill: #000; opacity: 1;">D</text><text text-anchor="middle" transform="translate(300,21)" style="font: 18px EB Garamond; fill: #000; opacity: 1;">E</text><text text-anchor="middle" transform="translate(366.6666666666667,21)" style="font: 18px EB Garamond; fill: #000; opacity: 1;">F</text><text text-anchor="middle" transform="translate(433.3333333333333,21)" style="font: 18px EB Garamond; fill: #000; opacity: 1;">G</text><text text-anchor="middle" transform="translate(500,21)" style="font: 18px EB Garamond; fill: #000; opacity: 1;">H</text><text text-anchor="middle" transform="translate(566.6666666666667,21)" style="font: 18px EB Garamond; fill: #000; opacity: 1;">I</text></g><g class="mark-rule role-axis-domain" style="pointer-events: none;"><line transform="translate(0,0)" x2="600" y2="0" style="fill: none; stroke: #888; stroke-width: 1; opacity: 1;"></line></g><g class="mark-text role-axis-title" style="pointer-events: none;"><text text-anchor="middle" transform="translate(300,49)" style="font: bold 24px EB Garamond; fill: #000; opacity: 1;">a</text></g></g></g></g><g class="mark-group role-axis"><g transform="translate(0.5,0.5)"><path class="background" d="M0,0h0v0h0Z" style="pointer-events: none; fill: none;"></path><g><g class="mark-rule role-axis-tick" style="pointer-events: none;"><line transform="translate(0,300)" x2="-5" y2="0" style="fill: none; stroke: #888; stroke-width: 1; opacity: 1;"></line><line transform="translate(0,270)" x2="-5" y2="0" style="fill: none; stroke: #888; stroke-width: 1; opacity: 1;"></line><line transform="translate(0,240)" x2="-5" y2="0" style="fill: none; stroke: #888; stroke-width: 1; opacity: 1;"></line><line transform="translate(0,210)" x2="-5" y2="0" style="fill: none; stroke: #888; stroke-width: 1; opacity: 1;"></line><line transform="translate(0,180)" x2="-5" y2="0" style="fill: none; stroke: #888; stroke-width: 1; opacity: 1;"></line><line transform="translate(0,150)" x2="-5" y2="0" style="fill: none; stroke: #888; stroke-width: 1; opacity: 1;"></line><line transform="translate(0,120)" x2="-5" y2="0" style="fill: none; stroke: #888; stroke-width: 1; opacity: 1;"></line><line transform="translate(0,90)" x2="-5" y2="0" style="fill: none; stroke: #888; stroke-width: 1; opacity: 1;"></line><line transform="translate(0,60)" x2="-5" y2="0" style="fill: none; stroke: #888; stroke-width: 1; opacity: 1;"></line><line transform="translate(0,30)" x2="-5" y2="0" style="fill: none; stroke: #888; stroke-width: 1; opacity: 1;"></line><line transform="translate(0,0)" x2="-5" y2="0" style="fill: none; stroke: #888; stroke-width: 1; opacity: 1;"></line></g><g class="mark-text role-axis-label" style="pointer-events: none;"><text text-anchor="end" transform="translate(-7,305)" style="font: 18px EB Garamond; fill: #000; opacity: 1;">0</text><text text-anchor="end" transform="translate(-7,275)" style="font: 18px EB Garamond; fill: #000; opacity: 1;">10</text><text text-anchor="end" transform="translate(-7,245)" style="font: 18px EB Garamond; fill: #000; opacity: 1;">20</text><text text-anchor="end" transform="translate(-7,215)" style="font: 18px EB Garamond; fill: #000; opacity: 1;">30</text><text text-anchor="end" transform="translate(-7,185)" style="font: 18px EB Garamond; fill: #000; opacity: 1;">40</text><text text-anchor="end" transform="translate(-7,155)" style="font: 18px EB Garamond; fill: #000; opacity: 1;">50</text><text text-anchor="end" transform="translate(-7,125)" style="font: 18px EB Garamond; fill: #000; opacity: 1;">60</text><text text-anchor="end" transform="translate(-7,95)" style="font: 18px EB Garamond; fill: #000; opacity: 1;">70</text><text text-anchor="end" transform="translate(-7,65)" style="font: 18px EB Garamond; fill: #000; opacity: 1;">80</text><text text-anchor="end" transform="translate(-7,35)" style="font: 18px EB Garamond; fill: #000; opacity: 1;">90</text><text text-anchor="end" transform="translate(-7,5)" style="font: 18px EB Garamond; fill: #000; opacity: 1;">100</text></g><g class="mark-rule role-axis-domain" style="pointer-events: none;"><line transform="translate(0,300)" x2="0" y2="-300" style="fill: none; stroke: #888; stroke-width: 1; opacity: 1;"></line></g><g class="mark-text role-axis-title" style="pointer-events: none;"><text text-anchor="middle" transform="translate(-55,145)" style="font: bold 24px EB Garamond; fill: #000; opacity: 1;">b</text></g></g></g></g></g></g></g></g></svg>