<svg xmlns="http://www.w3.org/2000/svg" xmlns:xlink="http://www.w3.org/1999/xlink" width="288" height="320" version="1.1" viewBox="0 0 216 240">
    <defs>
        <clipPath id="clip1">
            <path d="M0 0h216v240H0z"/>
        </clipPath>
        <g id="surface82" clip-path="url(#clip1)">
            <path fill="none" stroke="#fff" stroke-linecap="butt" stroke-linejoin="miter" stroke-miterlimit="10" stroke-opacity="1" stroke-width="1" d="M10.086 1.883c-2.598 1.082-7.941 7.59-12.012 7.73M10.012-.176C6.926 2.614 5.246 5.426.227 11.914m22.34-13.89C12.331 4.956 5.612 12.265 1.44 23.671M20.461-.164C15.01 4.617 9.727 12.73-.965 22.05M32.441-2.684C25.22 8.48 15.656 16.746-.863 34.598m31.945-35.98C19.977 12.683 6.988 25.964.566 34.18M42.73 1.543c-14.5 13.266-30.976 33.383-41.199 43.36M42.566-1.212C27.102 15.906 14.133 31.5-.984 46.797M53.156-2.23C36.636 21.363 21.473 37.836 1.32 59.266M50.691-1.043C40.535 15.582 25.094 29.238.684 58.781m64.52-60.426C51.937 16.027 37.823 33.148 1.98 70.723M63.578-1.242C45.48 19.27 26.461 42.133-1.234 71.258M70.578 2.57C55.36 22.863 35.266 46.648.098 84.531M73.949-.742C55.203 21.468 35.97 42.473.418 83.23M83.028.766C58.151 34.07 24.647 69.824 2.62 93.633M83.543.41C62.156 23.63 42.57 47.332.277 95.102M95.711 1.664C64.242 31.121 39.55 66.871 2.609 108.496M93.715-.039C62.348 36.492 30.969 70.676.55 108.43M106.816 2.734C82.117 27.937 57.121 58.043-2.14 121.871M103.883-.543C80.348 29.973 54.336 60.336-1.007 121.129M115.038-.355C74.98 46.305 31.437 91.89 1.773 134.415M115.133-.599C70.03 51.532 27.043 100.176-.621 132.34M123.812-.758C98.114 34.738 71.13 66.824-1.534 146.328M126.855-1.004C92.902 37.86 59.2 75.863.656 145.98M138.636 2.734C102.735 38.062 67.653 75.367 1.505 158.797M136.707-.828C103.594 40.066 68.109 80.367 1.133 156.168M145.883.887C95.543 61.199 37.797 123.007 1.243 167.37M147.84-.582C117.605 34.887 89.11 68.816.695 169.621M157.551-2.688C105.914 61.695 53.332 118.462-1.734 179.942M157.8-.45C117.379 47.359 76.758 94.598-.711 180.82M169.625 1.835C128.015 48.098 85.66 93.613 2.656 192.613M169.172.477c-61.8 67-119.27 132.699-169.254 192.32M180.176-.34C120.926 66.39 66.152 134.05.426 203.941M178.875.336C133.094 50.148 90.559 101.398-1.344 206.758M192.102 2.496C136.617 63.758 79.609 129.406 1.887 217.617M188.469 1.102C136.289 60.117 86.938 118.73.504 219.395M197.94-.012C139.203 69.715 80.254 137.813-2.094 228.547M199.531-.582c-64.273 76.309-129.914 154.336-198.3 230.71M211.214-1.233c-50.12 59.401-98.292 115.346-208.472 240.065M210.25-.609C153.023 62.406 97.328 126.578.992 239.164M218.2 5.714C138.137 98.489 56.734 183.778 10.355 240.337M216.43 5.836C154.68 73.789 99.098 137.867 11.87 239.375M214.898 19.367C163.29 75.855 115.316 131.254 25.41 237.453M214.863 17.828C153.422 90.383 90.59 161.102 23.23 239.727M218.762 31.852C164.132 91.27 110.477 158.547 32.57 242.637M216.582 30.234C167.254 89.793 114.32 151.352 34.122 239.238M215.366 42.902C174.464 86.82 131.171 137.336 42.3 237.574m174.215-195.43c-61.14 71.568-122.163 143.529-172.437 197.365m170.875-182.4c-37.328 37.633-71.516 78.61-160.816 185.442M215.902 55.695c-45.609 51.938-92.23 105.625-161.613 183.438M216.633 69.977c-47.336 50.878-91.957 100.445-150.164 167.597M216.008 67.887c-37.153 37.98-70.004 77.707-151.281 171.902m151.12-161.973c-35.32 43.364-72.535 86.489-140.347 164.446M217.148 79.215c-46.05 52.535-88.609 104.031-141.234 161.66M216.176 91.656c-31.11 36.328-62.317 73.035-127.43 150.235M214.895 93.03c-45.684 52.977-89.75 103.227-127.23 147.336M216.03 103.04c-27.414 32.762-55.215 70.066-116.312 134.32M216.19 104.176c-43.406 51.426-89.039 99.902-117.824 137.152M214.14 113.684c-39.532 45.566-78.024 91.543-103.774 128.183m105.531-125.039c-32.109 33.871-62.105 68.09-107.472 124.242M214.96 129.102c-35.203 39.539-65.527 74.5-95.527 113.191m96.71-113.898c-37.738 38.68-73.335 80.207-97.433 111.03m99.25-96.222c-35.582 31.352-65.695 65.703-85.973 94.445m82.84-96.335c-32.398 36.085-62.18 74.742-84.863 97.964m84.86-88.964c-19.208 17.886-30.942 40.14-74.333 90.578m76.778-88.899c-24.165 26.004-44.266 49.36-75.868 87.2m76.57-71.766c-23.433 22.43-43.195 43.37-68.812 70.933m66.899-74.414c-21.329 26.243-41.5 51.934-65.196 76.387m62.344-63.781c-11.64 16.27-23.469 34.262-49.71 62.445m52.753-61.242c-13.59 11.312-25.137 25.516-54.188 62.324m54.145-52.441c-19.293 19.12-32.805 38.054-46.266 53.511m46.211-51.007c-12.332 15.64-26.129 29.972-45.324 50.398m44.059-40.25c-7.602 12.68-18.422 28.297-30.586 39.129m32.144-38.488c-9.382 10.992-18.496 21.441-34.347 38.05m32.238-23.054c-1.344.156-10.2 11.015-19.422 25.566m22.035-27.89c-6.015 6.464-9.976 10.652-22.789 26.875m22.195-16.368c-5.113 7.075-6.636 13.106-12.82 15.02m12.016-13.402c-4.078 2.496-8.871 7.628-11.617 14.453m12.222-1.899c-.465 3.055-1.086 4.34-1.894 1.563m1.765-1.707c-.554 2.539-1.3 3.062-1.554 1.894"/>
        </g>
        <pattern id="pattern0" width="216" height="240" patternUnits="userSpaceOnUse">
            <use xlink:href="#surface82"/>
        </pattern>
        <clipPath id="clip2">
            <path d="M0 0h216v240H0z"/>
        </clipPath>
        <g id="surface88" clip-path="url(#clip2)">
            <path fill="none" stroke="#fff" stroke-linecap="butt" stroke-linejoin="miter" stroke-miterlimit="10" stroke-opacity="1" stroke-width="1" d="M9.61-.04c-.84 3.267-6.27 5.645-7.587 11.513M9.473.387C7.074 3.367 4.117 6.016.426 10.785m21.906-13.3C12.887 10.167 6.336 16.155-2.27 22.554M19.168 1.223C13.984 6.64 7.684 14.984.098 23.843m29.12-21.292C19.559 12.21 6.685 24.008.634 38.05m29.73-39.203C24.153 8.672 14.602 16.254-.312 36.594m42.28-35.422c-10.66 14.91-24.44 25.023-40.906 45.121M41.313-.812C27.373 18.398 9.066 36.105.395 48.788M52.047-.246C33.934 18.68 17.847 39.156-1.965 60.68M52.098-1.086C31.363 22.664 12.566 44.121-.282 60.695M64.692-2.18C47.29 21.316 27.59 38.996.34 70.023M63.844.117C45.516 22.715 24.676 43.88-1.136 73.305M71.143.066C43.083 34.594 15.724 66.957-.698 83.187M72.94.353C44.297 32.672 18.328 62.578.22 83.324M84.227-2.05C58.507 29.984 33.57 61.242-1.215 95.676M84.965.356C60.297 24.675 39.656 48.948-.063 94.972M93.54-2.512C69.332 29.61 39.937 63.113 1.74 111.066M94.944.82C59.992 38.805 25.52 79.38 1.175 108.914M107.516-1.28C66.157 42.969 27.426 87.125-1.476 119.637M105.441-.297C77.945 29.813 49.88 62.195-.57 121.593M113.21-1.55C73.185 45.551 29.966 92.863-.104 131.72M114.71-1.008C86.738 32.918 55.906 66.906.28 132.63M127.973-2.562C97.047 35.968 64.563 72.136-1.332 145.773M126.898-.25C92.281 39.688 56.098 82.77-.074 146.191M134.386 2.082c-36.55 39.3-74.984 84.215-135.425 152.637M136.668-1.391C84.613 60.4 30.613 123.242-1.332 157.691M149.297 2.09C96.324 61.562 40.789 118.715-2.68 169.672M148.613-.953C101.074 50.48 59 101.64-1.012 169.657m160.36-171.34C97.008 66.956 37.91 137.846-.113 181.421M159.19.172C122.59 39.23 87.105 76.55-1.336 180.586M166.133-1.594C129.012 42.07 92.383 87.801-.317 195.117M169.024-.848C113.563 64.598 55.148 130.984.898 193.074M180.218.988C138.739 48.895 97.66 98.105-.077 206.504M178.344 1.144C130.313 60.712 77.945 120.157.617 206.427M191.445.625C122.352 74.43 59.242 154.113-2.344 220.598M190.56-.797C124.512 79.25 53.043 157.613.594 218.61M198.82-.297C117.348 91.527 44.355 178.523-1.25 230.34M200.34-.348C125.562 85.434 52.77 168.496-.348 230.023M209.988 1.07C155.188 66.516 93.266 134.973.352 237.531M210.387-.719c-45.535 58.336-96.274 115.89-208.715 240.117M215.875 8.832c-56.27 64.309-115.703 128.715-202.05 231.016M216.32 7.137c-40.254 50.11-82.863 97.695-204.457 232.683M214.848 20.27C162.438 77.227 111.539 137.645 21.03 240.93M215.555 17.32C163.195 77.96 110.3 139.977 24.152 238.984m191.02-207.992c-40.145 46.41-85.207 93.719-178.492 211.098M216.566 31.227C160.398 92.16 106.422 157.344 34.54 239.492M215.934 42.203c-39.715 46.48-78.676 88.469-171.54 196.668M215.017 42.555c-52.176 60.37-104.961 120.46-170.797 197.652M216.973 54.551c-45.047 51.933-89.95 101.82-164.336 183.094M216.383 56.508C153.082 126.883 90.414 198.727 56.09 240.39M217.828 66.035C171.395 121.23 124.195 169.738 67.52 239.41M215.492 68.75c-50.047 60.426-104.23 118.922-148.383 171.719M217.754 82.137c-30.086 31.687-63.68 64.804-140.762 156.777M216.391 79.238c-40.508 41.664-77.496 85.88-140.621 160.528M218.64 90.184c-36.656 42.468-70.312 77.957-132.863 150.476m130.47-149.754c-45.727 54.32-92.704 107.11-130.2 148.95m131.695-135.34c-40.754 42.754-72.094 80.296-117.246 138.03M215.117 104.38C189.961 135.676 161.04 168.03 97.5 239.55m118.152-123.89c-40.437 43.53-79.906 86.765-105.57 124.237m106.04-123.394c-42.95 45.598-83.919 94.226-106.845 123.933m108.953-114.73c-21.015 27.527-46.773 51.914-100.933 112.629m99.137-111.379c-22.04 30.195-48.528 56.398-96.793 113.156m98.37-102.258c-34.445 38.422-64.234 78.84-90.429 102.094m87.117-98.12c-16.426 18.831-37.11 39.991-85.324 99.433m89.234-90.348c-32.797 33.492-61.55 65.156-75.734 86.336m73.574-84.254c-22.758 23.867-46.691 51.047-75.847 86.61M215.27 166c-24.958 22.91-49.13 51.734-65.083 75.602m65.528-77.2c-14.766 16.68-27.813 33.63-65.348 75.434m67.684-63.219c-13.492 13.656-25.34 26.524-54.774 62.16m51.934-61.797c-19.84 25.95-39.656 46.711-55.098 63.149m58.414-51.059c-11.226 13.016-17.914 19.907-44.882 50.102m42.64-50.473c-11.52 16.028-25.469 29.043-43.195 52.59m44.422-39.879c-9.754 9.5-17.239 19.524-34.64 37.613m33.273-36.82c-10.407 13.582-22.73 28.176-34.45 37.844m33.18-23.684c-2.773 1.54-11.82 12.121-19.887 25.422m19.676-27.84c-2.8 9.067-9.559 12.707-20.418 25.024m24.04-14.504c-4.274 2.543-5.743 9.156-13.571 14.816m11.844-13.074c-3.461 5.785-7.875 9.148-11.836 13.89m11.527-2.038c-1.027 3.511-1.703 3.847-1.676 1.902m1.25-1.836c-.12-1.883-.703-1.535-1.472 2.05"/>
        </g>
        <pattern id="pattern1" width="216" height="240" patternUnits="userSpaceOnUse">
            <use xlink:href="#surface88"/>
        </pattern>
    </defs>
    <g id="surface75">
        <path fill="url(#pattern0)" fill-rule="nonzero" stroke="none" d="M4.5 40h270v240H4.5zm0 0" transform="scale(.75)"/>
        <path fill="none" stroke="#000" stroke-linecap="butt" stroke-linejoin="miter" stroke-miterlimit="10" stroke-opacity="1" stroke-width="1.5" d="M1.151 30.882c64.77-.367 129.575-1.905 202.014-2.207M1.998 31.325c55.078 1.3 111.794.035 203.03-1.354m1.073-1.538c-2.121 70.142-2.567 137.627-.261 183.365m-1.12-181.543c2.85 57.571 3.208 118.661.493 180.92m1.017-1.108c-63.927-1.017-125.307-1.49-201.083-.307m198.727.04c-74.273.672-150.22 1.653-201.237 1.618m-.218-.106C.941 173.903 1.035 133.688 4.342 28.72M2.745 210.61c2.83-61.867 1.672-123.165.076-179.77"/>
        <path fill="url(#pattern1)" fill-rule="nonzero" stroke="none" d="M157.5 104h99v96h-99zm0 0" transform="scale(.75)"/>
        <path fill="none" stroke="#000" stroke-linecap="butt" stroke-linejoin="miter" stroke-miterlimit="10" stroke-opacity="1" stroke-width="1.5" d="M118.972 78.95c17.457.078 37.684-2.784 75.879 1.836m-74.854-.097c17.194-2.721 33.31-3.445 74.69-.931m.808 1.339c-1.225 21.732-2.78 43.31-2.699 71.768m1.61-73.497c-.953 30.525-.092 56.558-.766 72.413m-1.705-.117c-20.167-2.25-43.632.267-71.95.299m74.326-.788c-17.388.929-33.943 1.163-74.537 1.6m-2.098-2.315c4.208-24.703 1.146-49.734.938-69.583m.604 71.926c.342-19.798.697-40.09-.621-72.14"/>
        <path fill="none" stroke="#000" stroke-linecap="butt" stroke-linejoin="miter" stroke-miterlimit="10" stroke-opacity="1" stroke-width="1.5" d="M31.268 147.314c-5.437 1.03-11.607 2.478-14.437 2.238m14.306-.474c-3.595.322-6.962.163-14.174-1.105m.96 1.016c1.348-21.378.763-40.875-2.24-70.348m1.573 69.024c.934-17.086.747-35.092-1.199-70.116m-.866-.059c22.083-.334 38.71-1.933 75.489-.553m-74.054.416c25.47-1.058 49.605-2.368 74.795.037m.135-1.73c-.3 17.027.061 30.887-1.005 73.874m.354-73.602c.43 25.954.486 51.439.897 73.406m-1.585.78c-12.328-.47-29.9-.965-45.815-.962m47.341-.102c-13.08-.108-23.654-.657-48.515-1.377"/>
        <path fill="none" stroke="#000" stroke-linecap="butt" stroke-linejoin="miter" stroke-miterlimit="10" stroke-opacity="1" stroke-width="1.5" d="M38.42 126.39c-1.661 16.359-1.787 30.683 1.66 53.423m-1.194-52.47c.19 14.093-.401 26.887-.46 53.77m-1.225.381c.073 4.936 3.208 7.058 9.405 6.36m-8.62-7.897c.542 5.493 2.584 8.26 6.126 8.302m1.954-1.6c5.605.795 9.091-1.224 17.607 1.986m-20.595-.709c6.61-.307 12.906.396 21.161-.029"/>
        <path fill="none" stroke="#000" stroke-linecap="butt" stroke-linejoin="miter" stroke-miterlimit="10" stroke-opacity="1" stroke-width="1.5" d="M133.506 185.324c4.054-.83 7.734 1.347 10.482 1.3m-10.473.589c4.699-.79 8.13-1.136 11.656.358m1.24-1.298c3.583.656 5.795-1.44 6.633-6.285m-5.827 5.649c4.684 2.118 6.56.005 5.625-6.34m1.737.405c-2.42-6.232-3.528-11.286-1.564-18.865m-.63 18.674c-.1-4.878.114-9.123.495-15.739"/>
    </g>
    <defs xmlns="http://www.w3.org/2000/svg">
        <filter id="dsFilterNoBlur" width="150%" height="150%">
            <feOffset dx="3" dy="3" in="SourceGraphic" result="offOut"/>
            <feColorMatrix in="offOut" result="matrixOut" type="matrix" values="0.2 0 0 0 0 0 0.2 0 0 0 0 0 0.2 0 0 0 0 0 1 0"/>
            <feBlend in="SourceGraphic" in2="matrixOut" mode="normal"/>
        </filter>
        <filter id="dsFilter" width="150%" height="150%">
            <feOffset dx="3" dy="3" in="SourceGraphic" result="offOut"/>
            <feColorMatrix in="offOut" result="matrixOut" type="matrix" values="0.2 0 0 0 0 0 0.2 0 0 0 0 0 0.2 0 0 0 0 0 1 0"/>
            <feGaussianBlur in="matrixOut" result="blurOut" stdDeviation="3"/>
            <feBlend in="SourceGraphic" in2="blurOut" mode="normal"/>
        </filter>
        <marker id="iPointer" fill="#000" markerHeight="7" markerUnits="strokeWidth" markerWidth="8" orient="auto" refX="5" refY="5" viewBox="0 0 10 10">
            <path d="M10 0v10L0 5z"/>
        </marker>
        <marker id="Pointer" fill="#000" markerHeight="7" markerUnits="strokeWidth" markerWidth="8" orient="auto" refX="5" refY="5" viewBox="0 0 10 10">
            <path d="M0 0l10 5-10 5z"/>
        </marker>
    </defs>
    <g xmlns="http://www.w3.org/2000/svg" id="lines" fill="none" stroke="#000" stroke-width="2" transform="scale(.75)">
        <g id="group106">
            <path id="path106" d="M40.5 200h-18v-96h99v96h-63"/>
        </g>
        <g id="group124">
            <path id="path124" marker-start="url(#iPointer)" d="M49.5 168v70q0 10 10 10h26"/>
        </g>
        <g id="group409">
            <path id="path409" marker-end="url(#Pointer)" d="M175.5 248h17q10 0 10-10v-22"/>
        </g>
    </g>
    <text id="text0" x="12.825" y="45.6" fill="#000" stroke="none" font-family="xkcd Script" font-size="15">
        Node
    </text>
    <text id="text1" x="26.325" y="105.6" fill="#000" stroke="none" font-family="xkcd Script" font-size="15">
        Frontend
    </text>
    <text id="text3" x="73.575" y="189.6" fill="#000" stroke="none" font-family="xkcd Script" font-size="15">
        service
    </text>
    <text id="text2" x="127.575" y="105.6" fill="#000" stroke="none" font-family="xkcd Script" font-size="15">
        Foo
    </text>
</svg>
