<svg xmlns="http://www.w3.org/2000/svg" width="289" height="304" version="1.1">
    <path fill="#fff" d="M6.093316724512261 40.5957914116676 L276.54067137126765 40.739645026053765 L277.08538850002003 281.80859741358 L3.1891141920204973 279.1456999379625 L6.7454656627651275 37.350968775735964"/>
    <path fill="none" stroke="#000" stroke-width="2" d="M2.614603014671593 37.42002298401785 M4.121894284765126 38.83723666938664 C68.95790477141188 38.14757008570489, 133.83997739343522 39.14282435784961, 276.50057386544034 40.33839885284206 M3.725269009971671 39.39620153690539 C91.30931609334101 36.6968224370332, 179.03958846617675 38.00669805628412, 274.6930632908497 39.485628046014895 M274.22942422778215 39.69746813613298 C269.7123550999938 121.94950788100432, 273.46121329962756 203.51168894108568, 272.624545985143 279.4248227651212 M273.38187517807035 41.06455045571883 C274.8416088605568 131.07803875153166, 274.2274593328861 220.58000120764893, 274.1781367511703 280.70904317791303 M272.33494347232795 280.7945463497682 C203.44583856729645 278.5263160366407, 133.32079500972648 281.5912081081947, 2.632926062519814 281.2801229610722 M275.1046652694909 280.6957584046528 C195.64935066202187 281.5057590627748, 118.87686104871527 282.0598703268249, 3.4562875062102103 280.4492852469055 M2.4794463076699014 279.34969736366344 C2.1832353447820583 200.53213799153508, 1.1446555512250238 116.95873773088962, 3.218406431986212 40.41530501078522 M3.570159497218051 280.53235233163304 C7.661530197594537 211.37692572238117, 6.6111844833576825 141.12003672563674, 4.293623307595067 39.42225724143501"/>
    <path fill="#eee" d="M159.20585921732726 101.39954811286516 L253.9850979214185 101.91622342507654 L258.67403923522943 201.23017913681105 L154.82259258637458 198.59887990280987 L158.8697112336631 102.0461710784759"/>
    <path fill="none" stroke="#000" stroke-width="2" d="M160.0883788552397 104.70839969398367C193.7881686660793 107.32401967662719 228.4755314667631 103.58119860402749 256.10018132248223 104.94735699922748M157.96260711801733 102.70940565423307C193.15082324360756 106.24385739197065 228.93615780320653 104.53116507686183 255.97985778427065 104.36711928833537M257.63027371846255 104.7443925964537C255.52654849088094 134.16381504433883 255.36219829925093 159.88159137418515 255.16655184411246 199.24162288010922M257.33255346524675 104.23331070033274C257.32824841315653 126.64498057890232 257.68627730146164 148.3771659708133 257.1767851381075 200.97674726151962M259.1340205184686 200.50980187245295C230.69827177720725 203.08137268152478 210.9103364494309 197.66920416169796 156.05884003815373 199.04701672166266M256.18213283106235 199.6846655379124C219.30475932200522 199.84950999401934 180.56838340950756 199.1671318342467 157.56205771722526 201.3016769160291M154.70487570061013 198.08025837548922C158.08196284494625 168.4079779021543 159.45647242228952 135.20121362059 158.15538847886054 101.20173729255184M157.5308653975866 201.39149536636796C157.2726862733725 171.8612564607778 158.65797918485038 142.67026867787573 156.7451621023625 105.34820749416176M42.47768613084787 198.7620655108725C31.417338922641648 200.86817502868837 24.814217998805105 202.1246744803289 24.855117495523483 198.0792757313131M39.9591114930752 200.9363239473667C34.887013398209454 200.41909996503722 31.778104680707184 199.34130034207575 23.732590407972694 199.7704519252788M21.371937201189574 197.6480331214516C23.575744739390327 173.90618172199174 23.97767985480762 143.88167330330035 20.809732262090392 103.16435296654M21.910061277256773 199.766080729261C23.0714207280072 174.70797904680802 22.67489575383892 151.08454091608382 22.691664659771412 102.83129045948917M24.10927678122898 104.84841394989526C47.98583907457528 104.34306478892394 75.56682469626094 103.64337539773987 119.4201343034787 105.414216061568M22.1008940717506 102.8802140609235C45.75596492268068 105.48903451569727 66.89156756020056 103.6130062372185 122.83734301143431 104.9438893273411M120.26482108962372 103.13428896535079C123.34453385355746 143.6633261793453 120.51683645992068 180.57155361778132 122.7392911019223 199.91559669798806M121.79762200776887 104.87531935820516C123.8126726107837 125.97491871851089 123.61364255106031 150.060344056159 120.66574429279561 199.2657910250695M120.2770507963869 198.73867279298867C101.85195657400727 197.57136780024047 77.03665208488455 200.95077905671022 57.39129090586012 200.9785598103641M122.40374894221623 199.56497904399052C105.91758168779415 200.27813186202798 89.35287302947411 199.33485773640345 58.30546745444808 199.80078736746447M47.76707468241839 166.24048267823963C48.78321145299571 195.6951246390234 47.49855911793722 219.03805588339236 48.60009337932352 236.2892659848716M48.78751920156428 167.12109179369654C48.82014095874092 188.11041808279106 48.89599234011566 206.06336795158913 50.41868810389788 237.2685841570088M49.5 238C47.21053768217971 247.3215780336303 51.55389973212963 249.2590879480784 59.64539493191478 245.86432918067038M47.09769493746353 236.19211740899482C47.873949850841804 246.02663907979638 52.76840537844336 246.619275831383 60.934587844742275 249.10004098724679M60.53803953774972 247.17123623448452C62.26258882933471 247.831562450125 63.46641246216197 247.34989685968534 68.47521917310573 247.27305435352523M59.01373376378237 247.54858991240792C61.911757963562486 248.19878407856706 64.5109254049859 248.118719459588 67.84473599614044 248.55168987418634M185.43989073046424 248.99865017364647C187.47314968114864 247.35459745236656 189.6987319303371 247.5664799639843 193.25486397442612 247.73451767211895M183.98691206500794 248.44063915904727C186.2641061218655 248.36824592025783 189.34662601583878 248.06172937141534 192.7015894755017 248.44485571147098M192.5 248C196.56688959930784 245.59166348075814 202.4888464658972 242.56414980817485 202.4829541230327 238.81465541788876M193.21248374608257 246.93143007527834C196.94844059108826 249.08594695388982 204.6668374226192 245.50070141323974 202.27622510065464 235.59393059260475M200.12427663192594 239.64160846991143C202.47284673345922 235.14691612305432 201.93193769060372 225.48977026815336 203.780549468167 216.672218413667M203.62963024642795 236.81107686695321C203.7869261878623 231.40364976116052 202.05097482718853 223.8848584662046 201.5888880003782 214.62318704137428"/>
    <defs xmlns="http://www.w3.org/2000/svg">
        <marker id="iPointer-900g8pms3wl" fill="#000" markerHeight="7" markerUnits="strokeWidth" markerWidth="8" orient="auto" refX="5" refY="5" viewBox="0 0 10 10">
            <path d="M 10 0 L 10 10 L 0 5 z"/>
        </marker>
        <marker id="Pointer-900g8pms3wl" fill="#000" markerHeight="7" markerUnits="strokeWidth" markerWidth="8" orient="auto" refX="5" refY="5" viewBox="0 0 10 10">
            <path d="M 0 0 L 10 5 L 0 10 z"/>
        </marker>
        <filter id="dsFilterNoBlur" width="150%" height="150%">
            <feOffset dx="3" dy="3" in="SourceGraphic" result="offOut"/>
            <feColorMatrix in="offOut" result="matrixOut" type="matrix" values="0.2 0 0 0 0 0 0.2 0 0 0 0 0 0.2 0 0 0 0 0 1 0"/>
            <feBlend in="SourceGraphic" in2="matrixOut" mode="normal"/>
        </filter>
        <filter id="dsFilter" width="150%" height="150%">
            <feOffset dx="3" dy="3" in="SourceGraphic" result="offOut"/>
            <feColorMatrix in="offOut" result="matrixOut" type="matrix" values="0.2 0 0 0 0 0 0.2 0 0 0 0 0 0.2 0 0 0 0 0 1 0"/>
            <feGaussianBlur in="matrixOut" result="blurOut" stdDeviation="3"/>
            <feBlend in="SourceGraphic" in2="blurOut" mode="normal"/>
        </filter>
    </defs>
    <g xmlns="http://www.w3.org/2000/svg" id="lines-900g8pms3wl" fill="none" stroke="#000" stroke-width="2">
        <g id="group102">
            <path id="path102" d="M 40.5 200 L 22.5 200 L 22.5 104 L 121.5 104 L 121.5 200 L 58.5 200"/>
        </g>
        <g id="group119">
            <path id="path119" marker-start="url(#iPointer-900g8pms3wl)" d="M 49.5 168 L 49.5 238 Q 49.5 248 59.5 248 L 67.5 248"/>
        </g>
        <g id="group409">
            <path id="path409" marker-end="url(#Pointer-900g8pms3wl)" d="M 184.5 248 L 192.5 248 Q 202.5 248 202.5 238 L 202.5 216"/>
        </g>
    </g>
    <text id="text0" x="17.1" y="76.8" fill="#000" stroke="none" font-family="xkcd Script" font-size="120%">
        Node
    </text>
    <text id="text1" x="26.1" y="140.8" fill="#000" stroke="none" font-family="xkcd Script" font-size="120%">
        front
    </text>
    <text id="text3" x="80.1" y="252.8" fill="#000" stroke="none" font-family="xkcd Script" font-size="120%">
        service
    </text>
    <text id="text2" x="170.1" y="140.8" fill="#000" stroke="none" font-family="xkcd Script" font-size="120%">
        foo
    </text>
</svg>
