<svg xmlns="http://www.w3.org/2000/svg" xmlns:xlink="http://www.w3.org/1999/xlink" width="288" height="288" version="1.1" viewBox="0 0 216 216">
    <defs>
        <clipPath id="clip1">
            <path d="M0 0h216v216H0z"/>
        </clipPath>
        <g id="surface8" clip-path="url(#clip1)">
            <path fill="none" stroke="#fff" stroke-linecap="butt" stroke-linejoin="miter" stroke-miterlimit="10" stroke-opacity="1" stroke-width="1" d="M9.91 1.848C7.355 2.914 2.105 9.308-1.895 9.44M9.835-.172c-3.03 2.738-4.683 5.5-9.612 11.875m22.175-13.68C12.215 4.895 5.551 12.145 1.441 23.477M20.293-.164C14.883 4.566 9.641 12.633-.965 21.859M32.273-2.684c-7.18 11.11-16.695 19.325-33.136 37.09M30.91-1.383C19.871 12.613 6.941 25.824.566 33.984M42.56 1.543C28.125 14.738 11.707 34.785 1.53 44.707M42.398-1.211C26.988 15.84 14.078 31.367-.984 46.602M52.988-2.23C36.523 21.3 21.41 37.71 1.32 59.07M50.523-1.043C40.406 15.535 25.012 29.141.683 58.59M65.032-1.645c-13.226 17.63-27.304 34.711-63.05 72.172m61.43-71.77C45.358 19.212 26.39 42.024-1.235 71.063M70.406 2.57C55.234 22.812 35.184 46.547.098 84.336M73.778-.742C55.073 21.422 35.886 42.375.417 83.039M82.859.766C58.04 34.004 24.594 69.687 2.621 93.437M83.375.41C62.031 23.582 42.488 47.234.277 94.91M95.54 1.664C64.125 31.062 39.48 66.754 2.61 108.301M93.547-.04C62.238 36.43 30.914 70.55.55 108.234m106.094-105.5C81.988 27.887 57.035 57.95-2.141 121.68M103.715-.543c-23.5 30.469-49.469 60.785-104.723 121.48M114.872-.355C74.874 46.235 31.39 91.754 1.772 134.219M114.961-.598C69.93 51.461 27 100.032-.621 132.145M123.645-.758c-25.66 35.45-52.61 67.496-125.18 146.89M126.687-1.003C92.781 37.805 59.121 75.758.657 145.786M138.468 2.733c-35.86 35.282-70.903 72.54-136.965 155.868M136.539-.828C103.47 40.016 68.027 80.27 1.133 155.972M145.71.888C95.437 61.129 37.754 122.867 1.242 167.18M147.672-.582C117.469 34.848 89.008 68.738.695 169.426M157.383-2.687C105.8 61.632 53.273 118.335-1.734 179.745M157.633-.449C117.253 47.309 76.676 94.496-.711 180.629M169.457 1.836C127.887 48.05 85.57 93.52 2.657 192.422M169.003.477C107.262 67.41 49.855 133.039-.082 192.605M180.008-.34C120.808 66.328 66.094 133.922.426 203.75M178.707.336c-45.742 49.762-88.23 100.969-180.05 206.226M191.93 2.496C137.02 63.098 80.602 128.066 3.703 215.336M188.297 1.102C136.668 59.48 87.859 117.472 2.32 217.113M197.773-.012C142.743 65.218 87.563 128.98 10.324 214.07M199.364-.582C139.151 70.941 77.71 144.137 13.647 215.652m197.4-216.886C165.633 52.648 122.317 103 23.437 214.832M210.083-.609C158.586 55.777 108.406 113.609 21.688 215.164M218.198 5.52C146.348 89.44 72.852 165.637 31.051 216.336M216.43 5.64C160.832 67.117 111.094 124.473 32.566 215.375M214.898 19.172c-46.093 50.66-88.761 99.953-168.793 194.281m168.758-195.82C160.183 82.66 103.988 145.75 43.926 215.727M218.762 31.66C170 84.137 122.508 144.32 53.262 218.637m163.32-188.594c-43.664 52.488-90.648 107.21-161.766 185.195M215.367 42.711c-35.785 38.082-74.23 83.023-152.37 170.863M216.515 41.95C162.69 104.563 109.203 167.852 64.773 215.508m150.18-158.594c-32.547 32.098-62.074 67.707-140.121 161.637M215.902 55.5c-39.64 44.797-80.246 91.559-140.918 159.633M216.633 69.785c-40.848 43.8-79.242 86.203-129.469 143.79M216.008 67.69c-32.16 32.254-60.227 66.477-130.59 148.098m130.43-138.164c-29.996 36.824-61.735 73.645-119.657 140.637M217.148 79.02C177.57 123.832 141.7 167.633 96.605 216.875m119.57-125.414c-25.96 30.96-52.265 62.023-106.734 126.43M214.895 92.84c-38.286 44.937-75.125 86.879-106.536 123.527m107.672-113.523c-22.383 27.12-45.078 58.558-95.62 110.515m95.78-109.375c-35.675 42.836-73.703 82.563-97.129 113.344m95.079-103.836c-31.793 36.73-62.778 74.07-83.078 104.375m84.835-101.234c-26.144 26.902-50.261 54.363-86.777 100.437m85.84-88.164c-28.016 31.723-51.324 58.614-74.832 89.387m76.016-90.094c-30.004 29.59-57.926 62.281-76.739 87.227m78.555-72.414c-28.18 23.05-51.063 49.074-65.281 70.636m62.148-72.527c-24.617 27.363-46.695 57.156-64.168 74.156m64.164-65.16c-14.36 12.29-21.43 29.18-53.637 66.774m56.083-65.094c-18.274 19.762-32.758 36.652-55.172 63.394m55.875-47.96c-16.875 14.468-29.852 27.601-48.118 47.128m46.204-50.609c-14.477 18.758-27.97 36.762-44.504 52.582m41.652-39.977c-6.531 10.946-13.492 23.344-29.016 38.641m32.059-37.437c-8.719 5.773-15.645 14.664-33.496 38.52m33.453-28.634c-11.637 10.618-17.633 20.907-25.574 29.703m25.52-27.199c-6.094 8.719-13.758 15.988-24.633 26.59m23.398-16.41c-.773 5.082-4.816 12.82-9.969 15.3m11.485-14.679c-3.77 4.477-7.22 8.406-13.63 14.258m12.919-1.145c.16-2.152-.91-.812-1.606 2.387m2.04-2.773c-.641.511-.942.796-2.169 2.601"/>
        </g>
        <pattern id="pattern0" width="216" height="216" patternUnits="userSpaceOnUse">
            <use xlink:href="#surface8"/>
        </pattern>
        <clipPath id="clip2">
            <path d="M0 0h216v216H0z"/>
        </clipPath>
        <g id="surface14" clip-path="url(#clip2)">
            <path fill="none" stroke="#fff" stroke-linecap="butt" stroke-linejoin="miter" stroke-miterlimit="10" stroke-opacity="1" stroke-width="1" d="M10.684-.422C6.848 2.02 5.293 4.93 1.69 10.078M8.438-.676c-2.391 4.7-6.415 9.672-9.141 12.332M18.707 1.07c-3.527 5.426-7.32 7.098-16.07 19.528M19.14.137C13.563 8.27 5.598 17.176.609 23.426M30.664-.054c-5.328 8.991-16.703 16.76-27.883 35.905M30.473.532C23.145 9.401 14.93 17.811.582 34.901M43.363-2.516C27.422 17.875 14.168 31.574-2.27 46.75M40.2 1.223C27.921 14.469 14.815 30.637.097 48.039M50.25 2.551C32.785 21.203 12.094 41.992.633 62.242M51.395-1.152C39.835 14.512 25.21 27.934-.313 60.785M63 1.172C46.324 23.129 26.414 40.289 1.062 70.488m61.286-71.3C40.609 27.581 14.32 54.477.395 72.98M73.078-.246C48.23 26.148 25.648 54.098-1.965 84.875M73.13-1.085C44.297 31.62 17.71 62.034-.281 84.89M85.723-2.18C62.664 27.632 37.473 51.632.34 94.214M84.875.117C60.535 29.973 33.387 58.395-1.137 97.5M92.176.066C55.773 44.11 20.148 85.98-.7 107.38M93.973.352C57.129 41.828 23.203 80.887.219 107.516M105.258-2.051C73.21 37.65 41.609 76.574-1.215 119.867M106 .355C75.687 30.95 49.598 61.496-.063 119.168M114.57-2.512C84.313 36.828 48.645 77.551 1.738 135.262M115.98.82C73.102 47.56 31.02 96.887 1.176 133.11M128.546-1.282C79.462 51.703 33.137 104.594-1.476 143.832M126.473-.297C93.383 35.945 59.984 74.465-.57 145.79M134.242-1.55C86.532 54.13 35.86 110.023-.105 155.91M135.742-1.008C102.391 39.094 66.188 79.262.282 156.824M149.003-2.563C112.973 41.876 75.352 83.95-1.332 169.965M147.93-.25C107.578 46.508 65.46 96.414-.074 170.387M155.418 2.082C112.941 47.937 68.812 99.402-1.039 178.91M157.699-1.39C97.492 69.796 35.324 142.034-1.332 181.882M170.328 2.09C109.801 70.086 46.86 135.754-2.68 193.863M169.645-.953C115.598 57.664 67.28 116.004-1.012 193.847m181.39-195.53C109.978 76.042 42.98 156.022-.112 205.616M180.223.172C138.863 44.414 98.875 86.91-1.336 204.782m188.5-206.376C145.47 47.106 104.445 97.891 1.5 217.223M190.055-.847C128.254 72.09 63.328 145.968 2.71 215.18M201.25.988c-43.469 50.278-86.563 101.809-188.914 215.426M199.375 1.144C148.937 63.7 94.082 126.013 13.031 216.34M212.477.625C144.078 73.485 81.66 152.375 20.672 218.316M211.594-.797C146.234 78.13 75.488 155.66 23.609 216.324M214.473 5.894c-74.278 84.004-140.25 162.922-182.106 209.97M215.988 5.843C147.906 84.214 81.715 159.68 33.266 215.547m181.773-196.09c-44.66 53.645-96.148 110.102-172.793 194.074M215.437 17.668c-37.148 48.488-79.019 95.84-171.87 197.73m172.308-182.37c-44.172 50.757-91.723 101.492-160.156 182.82M216.32 31.332C184.496 71.59 150.746 108.988 53.758 215.82m161.09-171.36c-40.774 44.333-80.465 91.856-151.922 172.47M215.555 41.512c-40.899 47.957-82.364 96.824-149.508 173.472M215.172 55.187c-30.309 35.946-65.95 72.415-136.598 162.903M216.566 55.422c-43.558 46.21-84.972 96.945-140.132 160.07m139.5-149.094c-29.614 35.48-58.97 66.426-129.645 148.473M215.016 66.75c-38.836 46.246-78.848 91.64-128.903 149.457m130.86-137.465C183.316 117.45 150.02 153.984 94.53 213.645M216.383 80.703c-47.004 51.676-93.375 104.77-118.399 135.688M217.828 90.227c-33.8 41.085-68.34 75.023-108.414 125.183M215.492 92.941c-35.836 43.414-75.273 84.946-106.488 123.528m108.75-110.137c-20.977 21.617-45.79 44.629-98.867 108.582m97.504-111.48c-28.75 28.035-54.371 59.168-98.727 112.332m100.977-101.391c-25.903 29.523-48.567 52.367-90.97 102.285m88.575-101.562c-31.043 37.332-62.973 72.812-88.305 100.757m89.801-87.148c-27.851 28.785-46.61 51.852-75.351 89.84m72.726-89.973c-15.66 19.848-34.781 40.926-75.722 86.977m76.257-75.696c-25.074 25.989-49.593 52.028-63.675 76.043M216.12 140.7c-26.617 27.211-51.687 57.551-64.95 75.738m67.06-66.535c-12.06 17.438-28.641 31.262-59.04 64.434m57.243-63.184c-12.153 18.336-28.18 32.508-54.899 64.961m56.477-54.062c-19.14 20.27-33.04 42.406-48.535 53.898m45.222-49.926c-7.183 8.825-19.168 19.973-43.43 51.239m47.34-42.157c-16.879 14.872-29.699 28.204-33.84 38.145m31.68-36.059c-10.137 9.313-21.668 22.215-33.953 38.414m32.774-25.41c-8.418 4.055-16.657 14.551-23.188 27.407m23.633-29.004c-5.64 6.148-9.383 12.39-23.453 27.238M218 200.824c-4.898 3.988-8.18 7.02-12.875 13.988m10.105-13.632c-4.585 8.797-9.128 12.039-13.19 14.945m14.382-2.672c-.848.91-.906.848-2.317 2.41m1.942-2.472c-.543 1.367-1.422 1.87-2.035 2.824"/>
        </g>
        <pattern id="pattern1" width="216" height="216" patternUnits="userSpaceOnUse">
            <use xlink:href="#surface14"/>
        </pattern>
    </defs>
    <g id="surface1">
        <path fill="url(#pattern0)" fill-rule="nonzero" stroke="none" d="M4.5 40h270v240H4.5zm0 0" transform="scale(.75)"/>
        <path fill="none" stroke="#000" stroke-linecap="butt" stroke-linejoin="miter" stroke-miterlimit="10" stroke-opacity="1" stroke-width="1.5" d="M3.595 29.425c69.298-.899 134.812-2.385 204.398 1.928M3.947 28.755c48.685-.372 98.152.744 203.431-.109m1.245-.27c1.157 75.602-1.29 143.26-1.06 181.815m-.704-180.262c-.55 65.588 1.026 131.751-.77 180.016m-.709.12c-65.777 1.275-131.525-.264-203.704-2.21m204.55 2.648c-56.504-.303-111.371-1.57-202.687-1.35m1.073-1.541c-.437-67.084-.613-135.005.457-176.63M3.23 209.438C1.513 147.882 2.113 87.097 4.445 30.357"/>
        <path fill="url(#pattern1)" fill-rule="nonzero" stroke="none" d="M157.5 104h99v96h-99zm0 0" transform="scale(.75)"/>
        <path fill="none" stroke="#000" stroke-linecap="butt" stroke-linejoin="miter" stroke-miterlimit="10" stroke-opacity="1" stroke-width="1.5" d="M118.343 75.085c25.402-.305 47.932.396 74.287 1.907m-74.373-1.426c27.521 2.381 54.84 2.123 72.7 1.121m1.644-2.212c-3.27 29.245.1 52.222-2.502 75.83m2.077-73.201c-2.2 26.71-.59 54.688-1.24 70.947m1.442-1.543c-21.613 1.854-45.203.316-75.677 3.84m75.123-2.115c-29.602.12-56.637.545-73.665.126m-1.657 1.896c-1.07-29.742 1.717-57.258.225-72.765m1.518 70.875c.164-16.415.364-30.445-.061-71.153"/>
        <path fill="none" stroke="#000" stroke-linecap="butt" stroke-linejoin="miter" stroke-miterlimit="10" stroke-opacity="1" stroke-width="1.5" d="M27.993 150.126c-1.426-2.67-4.286-.006-13.576-1.17m15.27.977c-3.698-.475-5.283-.465-14.054-.566m.554.976c-2.36-23.833-2.283-49.222 1.148-72.006M14.9 150.123c.303-28.585.091-55.758.835-72.562m.252-1.1c14.348 2.406 31.163.909 72.436 1.979m-72.822-1.471c25.385-.578 50.692.513 74.847-.449m1.028-.667c-3.972 21.483-3.363 46.822-1.95 71.668m-.443-69.735c.012 25.814-.42 51.393.97 70.893m.764-.75c-17.537 1.427-35.885 3.032-48.292 2.487m48.146-.527c-10.781.51-21.305.334-47.998-1.228"/>
        <path fill="none" stroke="#000" stroke-linecap="butt" stroke-linejoin="miter" stroke-miterlimit="10" stroke-opacity="1" stroke-width="1.5" d="M38.072 123.316c-.27 13.404-2.468 29.016-2.42 52.603m1.708-51.176c-.018 11.701-1.53 23.845-1.29 52.93m1.155-2.018c-.417 5.819 2.068 9.103 7.455 9.861m-9.662-9.266c1.709 4.028 4.849 6.931 9.42 8.713m1.89.123c2.504.618 9.916-1.45 18.711.633m-20.581-.844c5.262-.498 12.68.329 18.619.516"/>
        <path fill="none" stroke="#000" stroke-linecap="butt" stroke-linejoin="miter" stroke-miterlimit="10" stroke-opacity="1" stroke-width="1.5" d="M131.917 185.548c5.13 1.26 8.26-.776 10.844.367m-11.382-1.117c4.623-1.312 8.977-1.414 12.68.215m-1.278.515c4.907-1.391 7.984-4.125 9.229-8.2m-7.04 9.337c4.989-1.383 6.832-5.224 5.531-11.523m-1.125.484c2.848-4.617.157-8.18 1.444-16.148m-.061 15.632c-.487-2.771-1.435-6.404.24-16.635"/>
    </g>
    <defs xmlns="http://www.w3.org/2000/svg">
        <filter id="dsFilterNoBlur" width="150%" height="150%">
            <feOffset dx="3" dy="3" in="SourceGraphic" result="offOut"/>
            <feColorMatrix in="offOut" result="matrixOut" type="matrix" values="0.2 0 0 0 0 0 0.2 0 0 0 0 0 0.2 0 0 0 0 0 1 0"/>
            <feBlend in="SourceGraphic" in2="matrixOut" mode="normal"/>
        </filter>
        <filter id="dsFilter" width="150%" height="150%">
            <feOffset dx="3" dy="3" in="SourceGraphic" result="offOut"/>
            <feColorMatrix in="offOut" result="matrixOut" type="matrix" values="0.2 0 0 0 0 0 0.2 0 0 0 0 0 0.2 0 0 0 0 0 1 0"/>
            <feGaussianBlur in="matrixOut" result="blurOut" stdDeviation="3"/>
            <feBlend in="SourceGraphic" in2="blurOut" mode="normal"/>
        </filter>
        <marker id="iPointer" fill="#000" markerHeight="7" markerUnits="strokeWidth" markerWidth="8" orient="auto" refX="5" refY="5" viewBox="0 0 10 10">
            <path d="M10 0v10L0 5z"/>
        </marker>
        <marker id="Pointer" fill="#000" markerHeight="7" markerUnits="strokeWidth" markerWidth="8" orient="auto" refX="5" refY="5" viewBox="0 0 10 10">
            <path d="M0 0l10 5-10 5z"/>
        </marker>
    </defs>
    <defs>
        <style type="text/css">
            @font-face{font-family:&quot;xkcd Script&quot;;src:url(./xkcd-script.ttf)}
        </style>
    </defs>
    <g xmlns="http://www.w3.org/2000/svg" id="lines" fill="none" stroke="#000" stroke-width="2" transform="scale(.75)">
        <g id="group98">
            <path id="path98" d="M40.5 200h-18v-96h99v96h-63"/>
        </g>
        <g id="group114">
            <path id="path114" marker-start="url(#iPointer)" d="M49.5 168v70q0 10 10 10h26"/>
        </g>
        <g id="group371">
            <path id="path371" marker-end="url(#Pointer)" d="M175.5 248h17q10 0 10-10v-22"/>
        </g>
    </g>
    <text id="text0" x="12.825" y="45.6" fill="#000" stroke="none" font-family="xkcd Script" font-size="15">
        Node
    </text>
    <text id="text1" x="26.325" y="105.6" fill="#000" stroke="none" font-family="xkcd Script" font-size="15">
        Frontend
    </text>
    <text id="text3" x="73.575" y="189.6" fill="#000" stroke="none" font-family="xkcd Script" font-size="15">
        service
    </text>
    <text id="text2" x="127.575" y="105.6" fill="#000" stroke="none" font-family="xkcd Script" font-size="15">
        Foo
    </text>
</svg>
