<svg class="marks" width="324" height="372" viewBox="0 0 324 372" version="1.1" xmlns="http://www.w3.org/2000/svg" xmlns:xlink="http://www.w3.org/1999/xlink"><rect width="324" height="372" fill="white"></rect><g fill="none" stroke-miterlimit="10" transform="translate(69,14)"><g class="mark-group role-frame root" role="graphics-object" aria-roledescription="group mark container"><g transform="translate(0,0)"><path class="background" aria-hidden="true" d="M0.5,0.5h250v300h-250Z" stroke="#ddd"></path><g><g class="mark-group role-axis" aria-hidden="true"><g transform="translate(0.5,0.5)"><path class="background" aria-hidden="true" d="M0,0h0v0h0Z" pointer-events="none"></path><g><g class="mark-rule role-axis-grid" pointer-events="none"><line transform="translate(0,300)" x2="250" y2="0" stroke="#ddd" stroke-width="1" opacity="1"></line><line transform="translate(0,270)" x2="250" y2="0" stroke="#ddd" stroke-width="1" opacity="1"></line><line transform="translate(0,240)" x2="250" y2="0" stroke="#ddd" stroke-width="1" opacity="1"></line><line transform="translate(0,210)" x2="250" y2="0" stroke="#ddd" stroke-width="1" opacity="1"></line><line transform="translate(0,180)" x2="250" y2="0" stroke="#ddd" stroke-width="1" opacity="1"></line><line transform="translate(0,150)" x2="250" y2="0" stroke="#ddd" stroke-width="1" opacity="1"></line><line transform="translate(0,120)" x2="250" y2="0" stroke="#ddd" stroke-width="1" opacity="1"></line><line transform="translate(0,90)" x2="250" y2="0" stroke="#ddd" stroke-width="1" opacity="1"></line><line transform="translate(0,60)" x2="250" y2="0" stroke="#ddd" stroke-width="1" opacity="1"></line><line transform="translate(0,30)" x2="250" y2="0" stroke="#ddd" stroke-width="1" opacity="1"></line><line transform="translate(0,0)" x2="250" y2="0" stroke="#ddd" stroke-width="1" opacity="1"></line></g></g><path class="foreground" aria-hidden="true" d="" pointer-events="none" display="none"></path></g></g><g class="mark-group role-axis" role="graphics-symbol" aria-roledescription="axis" aria-label="X-axis titled 'a' for a discrete scale with 9 values: A, B, C, D, E, ending with I"><g transform="translate(0.5,300.5)"><path class="background" aria-hidden="true" d="M0,0h0v0h0Z" pointer-events="none"></path><g><g class="mark-rule role-axis-tick" pointer-events="none"><line transform="translate(14,0)" x2="0" y2="5" stroke="#888" stroke-width="1" opacity="1"></line><line transform="translate(42,0)" x2="0" y2="5" stroke="#888" stroke-width="1" opacity="1"></line><line transform="translate(69,0)" x2="0" y2="5" stroke="#888" stroke-width="1" opacity="1"></line><line transform="translate(97,0)" x2="0" y2="5" stroke="#888" stroke-width="1" opacity="1"></line><line transform="translate(125,0)" x2="0" y2="5" stroke="#888" stroke-width="1" opacity="1"></line><line transform="translate(153,0)" x2="0" y2="5" stroke="#888" stroke-width="1" opacity="1"></line><line transform="translate(181,0)" x2="0" y2="5" stroke="#888" stroke-width="1" opacity="1"></line><line transform="translate(208,0)" x2="0" y2="5" stroke="#888" stroke-width="1" opacity="1"></line><line transform="translate(236,0)" x2="0" y2="5" stroke="#888" stroke-width="1" opacity="1"></line></g><g class="mark-text role-axis-label" pointer-events="none"><text text-anchor="middle" transform="translate(13.888888888888886,21)" font-family="Raleway" font-size="18px" fill="#000" opacity="1">A</text><text text-anchor="middle" transform="translate(41.666666666666664,21)" font-family="Raleway" font-size="18px" fill="#000" opacity="1">B</text><text text-anchor="middle" transform="translate(69.44444444444444,21)" font-family="Raleway" font-size="18px" fill="#000" opacity="1">C</text><text text-anchor="middle" transform="translate(97.22222222222223,21)" font-family="Raleway" font-size="18px" fill="#000" opacity="1">D</text><text text-anchor="middle" transform="translate(125,21)" font-family="Raleway" font-size="18px" fill="#000" opacity="1">E</text><text text-anchor="middle" transform="translate(152.77777777777777,21)" font-family="Raleway" font-size="18px" fill="#000" opacity="1">F</text><text text-anchor="middle" transform="translate(180.55555555555557,21)" font-family="Raleway" font-size="18px" fill="#000" opacity="1">G</text><text text-anchor="middle" transform="translate(208.33333333333334,21)" font-family="Raleway" font-size="18px" fill="#000" opacity="1">H</text><text text-anchor="middle" transform="translate(236.11111111111111,21)" font-family="Raleway" font-size="18px" fill="#000" opacity="1">I</text></g><g class="mark-rule role-axis-domain" pointer-events="none"><line transform="translate(0,0)" x2="250" y2="0" stroke="#888" stroke-width="1" opacity="1"></line></g><g class="mark-text role-axis-title" pointer-events="none"><text text-anchor="middle" transform="translate(125,48)" font-family="Raleway" font-size="24px" font-weight="bold" fill="#000" opacity="1">a</text></g></g><path class="foreground" aria-hidden="true" d="" pointer-events="none" display="none"></path></g></g><g class="mark-group role-axis" role="graphics-symbol" aria-roledescription="axis" aria-label="Y-axis titled 'b' for a linear scale with values from 0 to 100"><g transform="translate(0.5,0.5)"><path class="background" aria-hidden="true" d="M0,0h0v0h0Z" pointer-events="none"></path><g><g class="mark-rule role-axis-tick" pointer-events="none"><line transform="translate(0,300)" x2="-5" y2="0" stroke="#888" stroke-width="1" opacity="1"></line><line transform="translate(0,270)" x2="-5" y2="0" stroke="#888" stroke-width="1" opacity="1"></line><line transform="translate(0,240)" x2="-5" y2="0" stroke="#888" stroke-width="1" opacity="1"></line><line transform="translate(0,210)" x2="-5" y2="0" stroke="#888" stroke-width="1" opacity="1"></line><line transform="translate(0,180)" x2="-5" y2="0" stroke="#888" stroke-width="1" opacity="1"></line><line transform="translate(0,150)" x2="-5" y2="0" stroke="#888" stroke-width="1" opacity="1"></line><line transform="translate(0,120)" x2="-5" y2="0" stroke="#888" stroke-width="1" opacity="1"></line><line transform="translate(0,90)" x2="-5" y2="0" stroke="#888" stroke-width="1" opacity="1"></line><line transform="translate(0,60)" x2="-5" y2="0" stroke="#888" stroke-width="1" opacity="1"></line><line transform="translate(0,30)" x2="-5" y2="0" stroke="#888" stroke-width="1" opacity="1"></line><line transform="translate(0,0)" x2="-5" y2="0" stroke="#888" stroke-width="1" opacity="1"></line></g><g class="mark-text role-axis-label" pointer-events="none"><text text-anchor="end" transform="translate(-7,305)" font-family="Raleway" font-size="18px" fill="#000" opacity="1">0</text><text text-anchor="end" transform="translate(-7,275)" font-family="Raleway" font-size="18px" fill="#000" opacity="1">10</text><text text-anchor="end" transform="translate(-7,245)" font-family="Raleway" font-size="18px" fill="#000" opacity="1">20</text><text text-anchor="end" transform="translate(-7,215)" font-family="Raleway" font-size="18px" fill="#000" opacity="1">30</text><text text-anchor="end" transform="translate(-7,185)" font-family="Raleway" font-size="18px" fill="#000" opacity="1">40</text><text text-anchor="end" transform="translate(-7,155)" font-family="Raleway" font-size="18px" fill="#000" opacity="1">50</text><text text-anchor="end" transform="translate(-7,125)" font-family="Raleway" font-size="18px" fill="#000" opacity="1">60</text><text text-anchor="end" transform="translate(-7,95.00000000000001)" font-family="Raleway" font-size="18px" fill="#000" opacity="1">70</text><text text-anchor="end" transform="translate(-7,64.99999999999999)" font-family="Raleway" font-size="18px" fill="#000" opacity="1">80</text><text text-anchor="end" transform="translate(-7,34.99999999999999)" font-family="Raleway" font-size="18px" fill="#000" opacity="1">90</text><text text-anchor="end" transform="translate(-7,5)" font-family="Raleway" font-size="18px" fill="#000" opacity="1">100</text></g><g class="mark-rule role-axis-domain" pointer-events="none"><line transform="translate(0,300)" x2="0" y2="-300" stroke="#888" stroke-width="1" opacity="1"></line></g><g class="mark-text role-axis-title" pointer-events="none"><text text-anchor="middle" transform="translate(-54,145)" font-family="Raleway" font-size="24px" font-weight="bold" fill="#000" opacity="1">b</text></g></g><path class="foreground" aria-hidden="true" d="" pointer-events="none" display="none"></path></g></g><g class="mark-area role-mark marks" role="graphics-object" aria-roledescription="area mark container"><path aria-label="a: A; b: 28" role="graphics-symbol" aria-roledescription="area mark" d="M13.888888888888886,216L41.666666666666664,135L69.44444444444444,171.00000000000003L97.22222222222223,26.99999999999999L125,56.999999999999986L152.77777777777777,141L180.55555555555557,243.00000000000003L208.33333333333334,39L236.11111111111111,144L236.11111111111111,300L208.33333333333334,300L180.55555555555557,300L152.77777777777777,300L125,300L97.22222222222223,300L69.44444444444444,300L41.666666666666664,300L13.888888888888886,300Z" fill="#4c78a8"></path></g></g><path class="foreground" aria-hidden="true" d="" display="none"></path></g></g></g></svg>