<svg xmlns="http://www.w3.org/2000/svg" width="298" height="240" version="1.1">
    <defs>
        <filter id="dsFilterNoBlur" width="150%" height="150%">
            <feOffset dx="3" dy="3" in="SourceGraphic" result="offOut"/>
            <feColorMatrix in="offOut" result="matrixOut" type="matrix" values="0.2 0 0 0 0 0 0.2 0 0 0 0 0 0.2 0 0 0 0 0 1 0"/>
            <feBlend in="SourceGraphic" in2="matrixOut" mode="normal"/>
        </filter>
        <filter id="dsFilter" width="150%" height="150%">
            <feOffset dx="3" dy="3" in="SourceGraphic" result="offOut"/>
            <feColorMatrix in="offOut" result="matrixOut" type="matrix" values="0.2 0 0 0 0 0 0.2 0 0 0 0 0 0.2 0 0 0 0 0 1 0"/>
            <feGaussianBlur in="matrixOut" result="blurOut" stdDeviation="3"/>
            <feBlend in="SourceGraphic" in2="blurOut" mode="normal"/>
        </filter>
        <marker id="iPointer" fill="#000" markerHeight="7" markerUnits="strokeWidth" markerWidth="8" orient="auto" refX="5" refY="5" viewBox="0 0 10 10">
            <path d="M10 0v10L0 5z"/>
        </marker>
        <marker id="Pointer" fill="#000" markerHeight="7" markerUnits="strokeWidth" markerWidth="8" orient="auto" refX="5" refY="5" viewBox="0 0 10 10">
            <path d="M0 0l10 5-10 5z"/>
        </marker>
    </defs>
    <g id="boxes" fill="none" stroke="#000" stroke-width="2">
        <g id="group0">
            <path id="path0" fill="#933" d="M49.5 8h170q10 0 10 10v102h-180z" fillStyle="solid" filter="url(#dsFilter)"/>
        </g>
        <g id="group1">
            <path id="path1" fill="#bbb" d="M67.5 50q0-10 10-10h26v22q0 10-10 10h-26z" fillStyle="solid" filter="url(#dsFilter)"/>
        </g>
        <g id="group1">
            <path id="path1" fill="#bbb" d="M121.5 50q0-10 10-10h26v22q0 10-10 10h-26z" fillStyle="solid" filter="url(#dsFilter)"/>
        </g>
        <g id="group1">
            <path id="path1" fill="#bbb" d="M175.5 40h26q10 0 10 10v22h-26q-10 0-10-10z" fillStyle="solid" filter="url(#dsFilter)"/>
        </g>
        <g id="group14">
            <path id="path14" fill="#fff" d="M49.5 120h180v48h-170q-10 0-10-10z" filter="url(#dsFilter)"/>
            <text id="text0" x="80.1" y="156.8" fill="#000" stroke="none" font-family="Consolas,Monaco,Anonymous Pro,Anonymous,Bitstream Sans Mono,monospace" font-size="15.2">
                a
            </text>
            <text id="text1" x="134.1" y="156.8" fill="#000" stroke="none" font-family="Consolas,Monaco,Anonymous Pro,Anonymous,Bitstream Sans Mono,monospace" font-size="15.2">
                2
            </text>
            <text id="text2" x="161.1" y="156.8" fill="#000" stroke="none" font-family="Consolas,Monaco,Anonymous Pro,Anonymous,Bitstream Sans Mono,monospace" font-size="15.2">
                sketch
            </text>
        </g>
    </g>
    <g id="lines" fill="none" stroke="#000" stroke-width="2">
        <g id="group163">
            <path id="path163" marker-start="url(#iPointer)" d="M85.5 104v32"/>
        </g>
        <g id="group253">
            <path id="path253" marker-start="url(#iPointer)" d="M139.5 104v32"/>
        </g>
        <g id="group343">
            <path id="path343" marker-start="url(#iPointer)" d="M193.5 104v32"/>
        </g>
    </g>
    <g id="text" fill="#000" font-family="Consolas,Monaco,Anonymous Pro,Anonymous,Bitstream Sans Mono,monospace" font-size="15.2">
        <text id="text3" x="8.1" y="188.8" fill="#000">
            github.com/arnehilmann/a2sketch
        </text>
    </g>
</svg>
